<?xml version="1.0" encoding="UTF-8"?>
<svg width="292px" height="39px" viewBox="0 0 292 39" version="1.1" xmlns="http://www.w3.org/2000/svg" xmlns:xlink="http://www.w3.org/1999/xlink">
    <!-- Generator: Sketch 55.2 (78181) - https://sketchapp.com -->
    <title>Group 7</title>
    <desc>Created with Sketch.</desc>
    <g id="Landing-Page" stroke="none" stroke-width="1" fill="none" fill-rule="evenodd">
        <g id="Desktop-Copy-3" transform="translate(-578.000000, -55.000000)" fill="#ffffff">
            <g id="Logo" transform="translate(578.000000, 31.000000)">
                <g id="Group-7">
                    <text id="tarot" font-family="Avenir-Light, Avenir" font-size="60" font-weight="300" letter-spacing="-3.05428571" fill-opacity="0.876393138">
                        <tspan x="0" y="60">tarot</tspan>
                    </text>
                    <path d="M276.327149,63 C276.242973,62.9404541 276.163462,62.8738526 276.088617,62.8001953 C275.697941,62.4157207 275.502606,61.752202 275.502606,60.8096191 L275.502606,48.5871094 L279.316327,48.5871094 L279.316327,45.8709961 L275.502606,45.8709961 L275.502606,41.0154785 L271.837714,41.0154785 L271.837714,45.8709961 L268.656513,45.8709961 L268.656513,48.5871094 L271.837714,48.5871094 L271.837714,60.8096191 C271.837714,61.6337819 271.918638,62.3639078 272.080487,63 L266.984791,63 C267.407879,62.2333204 267.619421,61.3667699 267.619421,60.4003418 C267.619421,58.8252363 266.99931,57.5695115 265.75907,56.6331299 C264.518829,55.6967482 262.627491,54.9557156 260.084998,54.4100098 C258.373466,54.05034 257.238663,53.6410667 256.680554,53.1821777 C256.122446,52.7232887 255.843396,52.0969766 255.843396,51.3032227 C255.843396,50.4970663 256.159653,49.8087431 256.792175,49.2382324 C257.424698,48.6677218 258.392071,48.3824707 259.694324,48.3824707 C260.55009,48.3824707 261.315927,48.5095935 261.991858,48.7638428 C262.667789,49.0180921 263.22899,49.3560526 263.675476,49.7777344 L264.270789,52.1961914 L267.024109,52.1961914 L266.838074,47.7499512 C266.031917,47.043014 265.021136,46.4911153 263.805701,46.0942383 C262.590265,45.6973613 261.21982,45.4989258 259.694324,45.4989258 C257.461891,45.4989258 255.648066,46.075629 254.252795,47.2290527 C252.857525,48.3824765 252.1599,49.7777262 252.1599,51.4148437 C252.1599,52.9775469 252.780011,54.2177688 254.020252,55.1355469 C255.260492,56.0533249 257.102222,56.7788548 259.545496,57.3121582 C261.257028,57.6966328 262.419736,58.1493138 263.033655,58.6702148 C263.647574,59.1911159 263.954529,59.8546346 263.954529,60.660791 C263.954529,61.516557 263.585563,62.2079808 262.84762,62.735083 C262.711423,62.8323662 262.565616,62.9206718 262.410198,63 L256.751778,63 C256.395764,62.8463036 256.092972,62.6556792 255.843396,62.428125 L255.155066,59.7306152 L252.401746,59.7306152 L252.414982,63 L248.841406,63 L247.960211,61.5351562 C247.278079,62.1552765 246.468834,62.6420637 245.532452,62.9955322 C245.528499,62.9970246 245.524543,62.9985139 245.520584,63 L239.883622,63 C239.27395,62.6895344 238.747739,62.2415614 238.304987,61.6560791 C237.362404,60.4096373 236.872516,58.8190526 236.835309,56.8842773 L236.891119,56.7912598 L249.950787,56.7912598 L249.950787,54.5030273 C249.950787,51.7744981 249.253163,49.5917074 247.857892,47.9545898 C246.462621,46.3174723 244.413154,45.4989258 241.70943,45.4989258 C239.377778,45.4989258 237.359316,46.4507961 235.653986,48.3545654 C233.948655,50.2583347 233.096002,52.6426615 233.096002,55.5076172 L233.096002,56.3261719 C233.096002,58.9979583 233.762993,61.2225502 235.096992,63 L228.375415,63 L228.375415,48.5871094 L232.57981,48.5871094 L232.57981,45.8709961 L228.375415,45.8709961 L228.375415,43.3223145 C228.375415,42.1068787 228.635862,41.1798128 229.156763,40.5410889 C229.677664,39.902365 230.477607,39.5830078 231.556616,39.5830078 C231.891481,39.5830078 232.217039,39.6016111 232.533301,39.6388184 C232.849562,39.6760256 233.11931,39.7194333 233.342554,39.769043 L233.789038,36.9785156 C233.268137,36.8544916 232.793752,36.7583744 232.365869,36.6901611 C231.937986,36.6219479 231.51321,36.5878418 231.091528,36.5878418 C229.082339,36.5878418 227.516558,37.1738467 226.394141,38.345874 C225.271723,39.5179014 224.710522,41.1766983 224.710522,43.3223145 L224.710522,45.8709961 L221.566528,45.8709961 L221.566528,48.5871094 L224.710522,48.5871094 L224.710522,63 L218.036566,63 L218.036566,45.8709961 L211.339301,45.8709961 L211.339301,48.2336426 L214.371674,48.754541 L214.371674,63 L207.586096,63 L207.586096,53.2937988 C207.586096,50.639684 206.99079,48.6770327 205.800159,47.4057861 C204.609528,46.1345395 202.929027,45.4989258 200.758606,45.4989258 C199.468756,45.4989258 198.31845,45.7934785 197.307654,46.3825928 C196.296858,46.971707 195.456607,47.7995552 194.786877,48.8661621 L194.526428,45.8709961 L188.219836,45.8709961 L188.219836,48.2336426 L191.252209,48.754541 L191.252209,63 L186.124685,63 C186.119364,62.9023929 186.115483,62.8047856 186.113043,62.7071777 C186.106842,62.4591296 186.103741,62.2048841 186.103741,61.9444336 L186.103741,52.252002 C186.103741,50.0815809 185.396815,48.4134824 183.982941,47.2476562 C182.569066,46.0818301 180.721136,45.4989258 178.439093,45.4989258 C176.913597,45.4989258 175.499744,45.7190652 174.197491,46.1593506 C172.895239,46.599636 171.78524,47.1856409 170.867462,47.9173828 L170.867462,51.8241211 L173.695197,51.8241211 L174.08587,49.7033203 C174.519955,49.2940409 175.087356,48.9715832 175.788092,48.7359375 C176.488828,48.5002918 177.298073,48.3824707 178.215851,48.3824707 C179.542908,48.3824707 180.578494,48.7266323 181.322638,49.4149658 C182.066782,50.1032993 182.438849,51.0365664 182.438849,52.2147949 L182.438849,54.5588379 L178.662335,54.5588379 C175.971013,54.5588379 173.853334,55.0766306 172.309235,56.1122314 C170.765135,57.1478323 169.993097,58.6205959 169.993097,60.5305664 C169.993097,61.4576683 170.12862,62.280811 170.399668,63 L165.96084,63 L165.96084,53.9635254 C165.96084,51.1357769 165.365533,49.0180979 164.174902,47.6104248 C162.984271,46.2027518 161.359581,45.4989258 159.300781,45.4989258 C157.911712,45.4989258 156.696294,45.8337857 155.654492,46.5035156 C154.61269,47.1732455 153.77554,48.0786076 153.143018,49.2196289 C152.659324,47.9793883 151.936894,47.0492219 150.975708,46.4291016 C150.014522,45.8089813 148.864216,45.4989258 147.524756,45.4989258 C146.185296,45.4989258 145.007085,45.7593724 143.990088,46.2802734 C142.973091,46.8011745 142.142142,47.5391066 141.497217,48.4940918 L141.255371,45.8709961 L134.930176,45.8709961 L134.930176,48.2336426 L137.962549,48.754541 L137.962549,63 L125,63 L125,31 L292,31 L292,63 L276.327149,63 Z M203.921204,63 L194.917102,63 L194.917102,51.3218262 C195.400796,50.4412554 196.048812,49.7467311 196.861169,49.2382324 C197.673527,48.7297338 198.606794,48.4754883 199.660999,48.4754883 C201.099678,48.4754883 202.169369,48.8475549 202.870105,49.5916992 C203.570841,50.3358436 203.921204,51.5946689 203.921204,53.3682129 L203.921204,63 Z M179.04431,63 L175.089563,63 C174.856368,62.8985347 174.652028,62.7730221 174.476544,62.6234619 C173.930838,62.1583717 173.65799,61.4855513 173.65799,60.6049805 C173.65799,59.612788 174.095168,58.7694371 174.969537,58.0749023 C175.843907,57.3803676 177.03142,57.0331055 178.532111,57.0331055 L182.438849,57.0331055 L182.438849,60.3445312 C182.004765,61.16309 181.285436,61.8638154 180.280841,62.4467285 C179.885027,62.6763981 179.472851,62.8608218 179.04431,63 Z M162.277344,63 L153.794141,63 L153.794141,53.2193848 C153.918165,51.8551201 154.367745,50.7234176 155.142896,49.8242432 C155.918046,48.9250687 156.94433,48.4754883 158.221777,48.4754883 C159.561237,48.4754883 160.572018,48.8878621 161.25415,49.7126221 C161.936283,50.5373821 162.277344,51.9419334 162.277344,53.9263184 L162.277344,63 Z M150.129248,63 L141.627441,63 L141.627441,51.098584 C142.011916,50.2676228 142.563815,49.6227074 143.283154,49.1638184 C144.002494,48.7049293 144.920258,48.4754883 146.036475,48.4754883 C147.363532,48.4754883 148.377413,48.9126665 149.078149,49.7870361 C149.778885,50.6614057 150.129248,52.0411527 150.129248,53.9263184 L150.129248,63 Z M218.036566,40.7178223 L218.036566,36.9785156 L214.371674,36.9785156 L214.371674,40.7178223 L218.036566,40.7178223 Z M241.70943,48.3824707 C243.222523,48.3824707 244.363528,48.8661573 245.132477,49.8335449 C245.901426,50.8009326 246.285895,52.0039479 246.285895,53.442627 L246.285895,53.9263184 L237.002741,53.9263184 L236.965533,53.8333008 C237.163972,52.2705977 237.697267,50.9714651 238.565436,49.9358643 C239.433604,48.9002634 240.481592,48.3824707 241.70943,48.3824707 Z" id="Combined-Shape"></path>
                </g>
            </g>
        </g>
    </g>
</svg>